#!OML:ASF E:/inclinewalkrobotboard/Project1/Captureday1/Session1/subject1.ASF
:FULLY-SPECIFIED
:DEGREES
213
root 0 0 0 1.258159315257164 -3.5917947650554645 1.899605027870365
lowerback 12.042779355132849 0.8483030338519397 -0.10760780732534558
upperback -4.409497946764447 1.0653611817246342 -0.6024230734320767
thorax -11.572989287107792 0.48727080757243724 -0.8027503411324788
lowerneck -5.961820716129461 1.728359452089886 4.699991760097693
upperneck 18.393814534681834 3.2872194609399665 -8.468787490524345
head 6.7315582979974735 1.2127823861557583 -3.252949840701028
rclavicle -3.7790920547305485E-16 -2.112612634885351E-15
rhumerus 20.78900296251195 14.832306122610808 -47.2939197212373
rradius 72.87465503262652
rwrist 27.41902596775972
rhand -34.55816148200129 -57.652226687288284
rfingers 7.12502000000002
rthumb -7.75167019570876 -87.60848333479487
lclavicle -2.203136032074573E-15 4.1901262380077927E-16
lhumerus 21.890022151221103 -13.057765754216197 44.450695043331436
lradius 70.73850357780984
lwrist -22.50303930459129
lhand -45.09591699540555 -70.84271652958884
lfingers 7.125020000000016
lthumb -17.857525518216185 -41.89968196534363
rfemur -25.61343921694413 -2.3713579589326255 16.87667260979634
rtibia 54.52197092487554
rfoot -31.336794801303895 -17.851320040279447
rtoes -19.036390812148813
lfemur -27.987004241646236 2.8320432083457585 -18.34238087339258
ltibia 54.785972534221244
lfoot -33.21616145419492 -3.534782410791056
ltoes -20.659217033719564
214
root 0 0 0 1.2576445757346182 -3.5911731714993644 1.8995563145105843
lowerback 12.042963884411277 0.8481594313610492 -0.107579094585879
upperback -4.409417825312155 1.0652176725020124 -0.6023730546329252
thorax -11.573015364029297 0.4871854685413892 -0.8027388630825023
lowerneck -5.962160214835389 1.7281772096415928 4.699930278746134
upperneck 18.393739638779113 3.286944663937481 -8.46862483097421
head 6.7316063395321 1.2126610065410932 -3.2529325383773884
rclavicle -3.8678702592031083E-16 -2.0995959214277988E-15
rhumerus 20.78733898875575 14.829662140433838 -47.29456450215277
rradius 72.87553368807848
rwrist 27.418582597441144
rhand -34.55933015680276 -57.651838999497265
rfingers 7.12502000000002
rthumb -7.752681886923593 -87.60702120243225
lclavicle -2.236393326977311E-15 4.301018438195994E-16
lhumerus 21.89073190904336 -13.061142138013327 44.45244373640066
lradius 70.74024303572557
lwrist -22.500507087955064
lhand -45.095461693244445 -70.83707502523873
lfingers 7.125020000000016
lthumb -17.856932190551305 -41.89384003198134
rfemur -25.614672405804118 -2.3758114104505035 16.878721733935116
rtibia 54.52903745961554
rfoot -31.33180275597651 -17.850024230359878
rtoes -19.015689560323974
lfemur -27.994589259109354 2.83661303163351 -18.347740403495568
ltibia 54.797637461435
lfoot -33.21034068629773 -3.536399617616664
ltoes -20.638990240144977
215
root 0 0 0 1.2581888891969824 -3.5916648984215733 1.8997712830587545
lowerback 12.042907739164795 0.8482625397069652 -0.10767211813442557
upperback -4.409474366313357 1.0653017981993291 -0.602461477490316
thorax -11.573037699056169 0.48724182375663705 -0.8027442674956193
lowerneck -5.96194896356223 1.7282873876058409 4.699911400453522
upperneck 18.39372795706936 3.287113701658363 -8.46864276034217
head 6.7315562278895875 1.2127442113519766 -3.2529045180457556
rclavicle -3.7658443804418444E-16 -2.1118593803356852E-15
rhumerus 20.789809427980096 14.83357123431018 -47.294874007302056
rradius 72.87516088397705
rwrist 27.418036011894284
rhand -34.55805600471521 -57.65181244342596
rfingers 7.12502000000002
rthumb -7.751579613335508 -87.60808773404317
lclavicle -2.2009522876148633E-15 4.1760377069685106E-16
lhumerus 21.88984212234915 -13.057954033262446 44.45107666741369
lradius 70.7383801373779
lwrist -22.502730653695295
lhand -45.09577969813702 -70.84174727252011
lfingers 7.125020000000016
lthumb -17.857405833386398 -41.89856875207805
rfemur -25.616633882796442 -2.371054751387871 16.87653607250771
rtibia 54.52148360233006
rfoot -31.33694436932076 -17.853741997748116
rtoes -19.029751784650873
lfemur -27.9911272961221 2.833688567558159 -18.344142379304724
ltibia 54.789874573359185
lfoot -33.21757834198607 -3.533307389868631
ltoes -20.650804705082766
216
root 0 0 0 1.258238253246161 -3.591843275565649 1.8996540156358028
lowerback 12.042868621708248 0.8482878394291227 -0.10761951200406394
upperback -4.4094998465966775 1.0653419108731152 -0.6024388860216562
thorax -11.573040269574744 0.48726123473500527 -0.8027596338230651
lowerneck -5.96189406380023 1.7283164716326722 4.699911925838834
upperneck 18.393739676069057 3.2871551717832963 -8.468675110146663
head 6.7315484820839 1.2127585500865496 -3.252910041508059
rclavicle -3.766237707532613E-16 -2.1120931035236265E-15
rhumerus 20.789736797798227 14.833348336156194 -47.29465217995269
rradius 72.87520780155005
rwrist 27.418232905472294
rhand -34.558115966158475 -57.65194328736485
rfingers 7.12502000000002
rthumb -7.751616283482779 -87.60827426748493
lclavicle -2.20255830686231E-15 4.193116566468719E-16
lhumerus 21.89013461201369 -13.058182520112851 44.45090139769954
lradius 70.73869110489109
lwrist -22.502771879319738
lhand -45.09590402348207 -70.8422312576025
lfingers 7.125020000000016
lthumb -17.857509624728802 -41.8991603788711
rfemur -25.615387591082147 -2.3710532498196866 16.87687387524174
rtibia 54.520636273902824
rfoot -31.338433885017594 -17.852958315347323
rtoes -19.033897219901135
lfemur -27.98924848972753 2.8321220822082305 -18.342060465468126
ltibia 54.785151625686304
lfoot -33.21835835644501 -3.53242397552485
ltoes -20.657276351245223
